<?xml version="1.0" standalone="no"?>
<!DOCTYPE svg PUBLIC "-//W3C//DTD SVG 20010904//EN"
 "http://www.w3.org/TR/2001/REC-SVG-20010904/DTD/svg10.dtd">
<svg version="1.0" xmlns="http://www.w3.org/2000/svg"
 width="1024.000000pt" height="1024.000000pt" viewBox="0 0 1024.000000 1024.000000"
 preserveAspectRatio="xMidYMid meet">

<g transform="translate(0.000000,1024.000000) scale(0.100000,-0.100000)"
fill="#000000" stroke="none">
<path d="M2508 8033 c12 -2 30 -2 40 0 9 3 -1 5 -23 4 -22 0 -30 -2 -17 -4z"/>
<path d="M2446 8014 c-4 -12 -2 -12 14 -4 24 13 26 5 5 -17 -9 -8 -22 -12 -30
-9 -8 3 -17 0 -21 -6 -4 -6 -3 -8 2 -5 6 3 16 2 24 -4 12 -7 9 -9 -10 -10 -14
-1 -28 -1 -32 0 -5 0 -8 -5 -8 -13 0 -8 -4 -16 -8 -18 -17 -7 -53 -69 -46 -79
4 -7 3 -9 -4 -5 -6 3 -14 -4 -18 -16 -4 -13 -17 -39 -30 -58 -13 -19 -24 -38
-24 -43 0 -11 914 -7 931 4 11 7 11 9 -3 9 -9 0 -18 5 -20 11 -4 11 -64 17
-180 18 -53 1 -68 4 -68 16 0 8 -9 15 -20 15 -11 0 -20 5 -20 10 0 6 -18 10
-40 10 -22 0 -40 5 -40 10 0 6 -18 10 -40 10 -22 0 -40 5 -40 10 0 6 -18 10
-40 10 -38 0 -40 2 -40 30 0 28 -2 30 -40 30 l-40 0 0 50 0 50 -37 1 c-21 0
-46 2 -55 4 -9 2 -19 -3 -22 -11z"/>
<path d="M3955 7980 c5 -8 3 -11 -6 -8 -18 7 -51 -10 -44 -22 3 -5 0 -12 -6
-16 -8 -4 -9 -3 -5 4 10 16 1 15 -34 -3 -17 -9 -30 -20 -30 -25 0 -6 -6 -10
-14 -10 -7 0 -24 -10 -38 -22 -14 -13 -31 -24 -39 -26 -18 -4 -127 -100 -139
-122 -9 -17 15 -18 448 -24 251 -4 507 -9 567 -11 108 -3 109 -3 60 11 -27 7
-71 14 -96 14 -26 0 -63 7 -82 15 -20 8 -68 18 -106 21 -60 6 -71 10 -71 25 0
16 -8 19 -60 19 -53 0 -60 2 -60 20 0 17 -7 20 -48 20 -36 0 -51 5 -62 20 -8
11 -22 20 -32 20 -11 0 -18 7 -18 20 0 13 -7 20 -20 20 -13 0 -20 7 -20 20 0
14 -7 20 -21 20 -11 0 -18 4 -14 9 3 5 0 13 -6 17 -8 5 -9 3 -4 -6z"/>
<path d="M5185 7480 c3 -5 11 -10 16 -10 6 0 7 5 4 10 -3 6 -11 10 -16 10 -6
0 -7 -4 -4 -10z"/>
<path d="M2166 7403 c-10 -47 -26 -206 -26 -256 l0 -48 1167 2 c712 1 1157 6
1142 11 -13 5 -69 9 -124 8 -192 -3 -243 0 -257 14 -8 8 -50 16 -101 21 -48 4
-87 11 -87 16 0 5 -18 9 -40 9 -22 0 -40 5 -40 10 0 6 -40 10 -100 10 -93 0
-100 1 -100 20 0 18 -7 20 -80 20 -73 0 -80 2 -80 20 0 18 -7 20 -80 20 l-80
0 0 40 c0 22 5 40 10 40 6 0 10 9 10 20 0 18 8 20 113 23 84 2 60 4 -93 7
l-205 4 185 6 c104 3 -104 7 -472 8 l-656 2 -6 -27z"/>
<path d="M5056 7298 c-78 -112 -611 -782 -686 -862 -47 -49 -184 -175 -305
-280 -121 -105 -251 -222 -290 -261 l-70 -70 300 -5 c323 -5 333 -7 360 -60
28 -54 14 -115 -34 -147 -23 -16 -63 -19 -370 -23 l-345 -5 -13 -50 c-8 -28
-15 -108 -16 -180 -2 -153 12 -216 75 -343 l41 -82 677 0 c660 0 677 -1 695
-20 22 -24 14 -64 -18 -82 -17 -10 -187 -14 -762 -18 l-739 -5 -39 -67 -39
-68 -141 -2 c-78 -1 -358 -1 -622 -1 -264 1 -469 -3 -455 -7 18 -6 9 -8 -37
-9 l-62 -1 -3 -139 -3 -140 222 -1 c147 0 223 3 223 10 0 5 9 10 21 10 11 0
18 -4 15 -8 -3 -5 47 -8 110 -8 63 0 114 3 114 6 0 3 108 5 240 5 132 0 240
-2 240 -5 0 -3 -9 -28 -19 -56 -36 -94 -101 -346 -131 -508 -60 -330 -85 -368
-447 -688 -112 -98 -203 -182 -203 -187 0 -12 166 -162 253 -227 97 -72 225
-147 242 -140 7 2 59 60 115 128 57 67 196 231 309 362 698 811 886 1056 1058
1376 26 47 47 87 49 88 1 2 35 -3 74 -12 136 -31 237 -31 429 -1 318 50 497
27 666 -86 75 -51 119 -91 80 -74 -244 105 -455 111 -644 17 -107 -52 -202
-126 -395 -308 -220 -207 -291 -263 -408 -324 -122 -63 -144 -89 -280 -323
-129 -222 -165 -292 -178 -352 -27 -118 54 -214 157 -186 58 16 137 88 301
276 171 195 222 244 336 319 300 199 724 329 1152 355 174 10 232 25 318 83
109 71 201 236 213 378 6 74 -4 171 -16 151 -5 -8 -18 -10 -37 -5 -43 11 -254
112 -254 122 0 9 -109 62 -128 62 -7 0 -12 3 -12 8 0 9 -65 38 -103 47 -15 3
-25 9 -22 14 6 11 -18 21 -51 21 -13 0 -24 4 -24 8 0 5 -22 19 -50 32 -27 13
-50 27 -50 31 0 4 -10 11 -22 15 -13 4 -36 17 -51 30 -16 13 -40 24 -53 24
-14 0 -46 11 -72 25 -26 14 -43 25 -37 25 16 0 -13 23 -32 24 -25 3 -73 27
-73 38 0 4 -9 8 -20 8 -11 0 -20 7 -20 15 0 9 -9 15 -21 15 -11 0 -33 13 -49
28 -16 16 -42 35 -59 42 -17 7 -31 19 -31 27 0 23 -26 43 -52 41 -17 -2 -24 3
-26 19 -2 12 -10 27 -18 33 -8 7 -14 21 -14 31 0 11 -7 19 -15 19 -12 0 -15
13 -15 60 0 48 3 60 16 60 19 0 44 24 44 43 0 8 18 22 40 31 22 9 40 20 40 26
0 5 17 10 38 11 32 1 27 4 -38 21 -93 25 -367 31 -439 10 -23 -7 -45 -11 -47
-9 -10 10 181 135 281 183 206 100 398 151 689 184 181 20 306 47 389 82 35
15 45 24 37 33 -5 6 -7 15 -3 18 3 4 -2 9 -11 13 -10 4 -16 18 -16 40 0 19 -4
34 -10 34 -5 0 -10 -9 -10 -21 0 -11 -4 -17 -10 -14 -5 3 -10 22 -10 41 0 19
-4 34 -10 34 -5 0 -10 9 -10 20 0 11 -6 20 -14 20 -7 0 -16 14 -20 31 -9 49
-7 129 4 129 6 0 10 7 10 15 0 18 64 85 81 85 6 0 19 8 28 19 25 29 89 61 121
61 17 0 30 4 30 9 0 11 39 27 105 42 28 7 53 17 57 23 4 5 28 12 55 15 l48 6
8 93 c5 51 5 128 0 170 l-8 77 -47 -67 c-129 -180 -362 -251 -582 -176 -143
48 -257 124 -405 270 -79 79 -134 146 -286 351 l-20 27 -29 -42z m1359 -688
c3 -5 1 -10 -4 -10 -6 0 -11 5 -11 10 0 6 2 10 4 10 3 0 8 -4 11 -10z m-488
-522 c-3 -8 -6 -5 -6 6 -1 11 2 17 5 13 3 -3 4 -12 1 -19z m-3594 -1435 c-7
-2 -19 -2 -25 0 -7 3 -2 5 12 5 14 0 19 -2 13 -5z m94 -9 c-3 -3 -12 -4 -19
-1 -8 3 -5 6 6 6 11 1 17 -2 13 -5z m989 -63 c0 -11 -4 -17 -8 -15 -4 3 -8 12
-8 20 0 8 4 14 8 14 4 0 8 -9 8 -19z"/>
<path d="M6446 7322 c-3 -5 1 -15 9 -22 16 -14 20 -3 6 19 -5 8 -11 9 -15 3z"/>
<path d="M6484 7275 c-4 -11 -9 -24 -12 -29 -3 -5 5 -7 17 -3 20 5 22 2 17
-16 -4 -16 4 -33 29 -60 19 -20 36 -37 39 -37 3 0 19 -13 37 -30 18 -16 36
-27 40 -24 4 2 10 -1 12 -6 3 -6 4 -5 3 2 -1 7 -16 20 -34 28 -21 10 -32 22
-32 36 0 12 -12 29 -26 39 -15 9 -23 12 -20 6 10 -16 -3 -14 -19 3 -16 16 -10
27 11 19 25 -9 15 23 -11 35 -14 7 -30 22 -34 34 -9 22 -9 22 -17 3z"/>
<path d="M5500 7182 c0 -20 182 -176 193 -165 4 3 7 0 7 -7 0 -7 3 -11 6 -7 4
3 14 -3 23 -13 19 -24 140 -70 181 -70 41 0 49 20 8 21 -21 1 -26 3 -14 6 16
4 11 8 -20 19 -21 7 -63 19 -91 25 -32 7 -53 18 -53 26 0 7 -7 14 -15 14 -32
3 -65 18 -65 31 0 15 -42 54 -99 92 -57 38 -61 40 -61 28z"/>
<path d="M6748 7023 c7 -3 16 -2 19 1 4 3 -2 6 -13 5 -11 0 -14 -3 -6 -6z"/>
<path d="M6644 6473 c-31 -148 -60 -241 -95 -313 -35 -71 -58 -101 -144 -187
l-102 -102 41 -83 c53 -106 102 -182 181 -283 66 -84 187 -209 200 -206 4 1
13 -8 20 -21 6 -13 17 -22 24 -20 7 1 10 -2 6 -7 -3 -6 3 -15 14 -21 16 -8 22
-6 30 7 6 10 10 14 11 8 0 -5 -4 -16 -9 -24 -11 -17 32 -56 49 -46 6 4 9 1 8
-7 -2 -8 6 -12 22 -10 17 1 21 -1 12 -6 -17 -11 -6 -20 66 -56 43 -22 56 -25
68 -15 12 10 17 9 27 -1 10 -10 9 -12 -5 -7 -10 4 -18 2 -18 -3 0 -6 6 -10 14
-10 8 0 23 -3 33 -6 15 -5 15 -4 3 5 -9 7 -10 11 -3 11 6 0 15 -5 18 -11 10
-15 136 0 157 18 10 9 16 20 15 25 -1 6 4 13 11 15 7 3 10 -1 6 -10 -4 -12 0
-14 15 -10 12 3 21 9 21 14 0 5 7 9 15 9 12 0 13 4 5 19 -13 26 -13 28 6 35 8
3 12 2 9 -4 -3 -6 1 -10 10 -10 10 0 15 7 13 18 -2 13 -15 18 -61 20 -49 3
-57 6 -57 22 0 19 -8 20 -120 20 -113 0 -120 1 -120 20 0 13 7 20 20 20 13 0
20 7 20 20 0 18 -7 20 -76 20 -67 0 -76 2 -81 20 -3 11 -14 20 -24 20 -12 0
-19 7 -19 20 0 13 -7 20 -20 20 -15 0 -20 7 -20 26 0 14 -4 23 -10 19 -14 -9
-13 8 2 23 9 9 7 12 -10 12 -20 0 -27 10 -23 33 0 4 -8 7 -19 7 -17 0 -20 7
-20 40 0 22 -4 40 -10 40 -5 0 -10 8 -10 18 0 10 -9 24 -20 32 -22 16 -27 65
-7 74 10 5 10 7 0 12 -8 3 -13 27 -13 61 0 45 4 59 22 75 19 16 20 21 8 29
-12 7 -12 11 -2 17 7 5 16 35 19 68 3 32 12 68 19 79 21 32 43 192 32 231 -5
19 -13 34 -19 34 -6 0 -7 5 -4 11 11 18 -68 129 -107 150 -14 8 -19 4 -24 -18z
m336 -1214 c0 -11 -4 -17 -10 -14 -5 3 -10 13 -10 21 0 8 5 14 10 14 6 0 10
-9 10 -21z"/>
<path d="M7160 5300 c0 -13 7 -20 20 -20 13 0 20 7 20 20 0 13 -7 20 -20 20
-13 0 -20 -7 -20 -20z"/>
<path d="M7441 5223 c0 -11 3 -13 6 -5 2 6 9 10 14 6 5 -3 9 0 9 5 0 6 -7 11
-15 11 -8 0 -15 -8 -14 -17z"/>
<path d="M2400 3791 c21 -6 16 -9 -32 -20 -31 -8 -63 -11 -72 -8 -27 11 -76
-4 -76 -22 0 -9 -9 -23 -20 -31 -11 -8 -20 -18 -20 -22 0 -4 9 -8 20 -8 11 0
20 -7 20 -16 0 -11 -6 -14 -20 -9 -16 5 -20 2 -20 -19 0 -14 4 -26 9 -26 5 0
9 -6 8 -12 -1 -38 4 -68 12 -68 5 0 8 11 6 25 -1 16 3 25 11 25 8 0 14 -7 14
-15 0 -8 -5 -15 -11 -15 -8 0 -8 -5 1 -15 7 -8 10 -24 7 -35 -5 -19 0 -20 91
-20 57 0 91 4 84 9 -8 5 59 6 150 3 136 -4 166 -2 179 10 8 8 22 14 32 12 9
-1 31 13 49 31 17 19 35 32 40 29 4 -3 8 2 8 11 0 9 4 13 10 10 6 -4 7 1 3 11
-4 11 -3 15 5 10 8 -4 8 3 1 26 -11 41 -11 47 1 28 8 -12 10 -11 10 8 0 12 -4
22 -10 22 -5 0 -7 7 -4 15 4 10 -3 18 -20 25 -14 5 -26 12 -26 15 0 4 5 3 10
0 6 -3 10 -2 10 2 0 5 -13 16 -29 26 -25 15 -58 17 -243 16 -117 -1 -202 -4
-188 -8z"/>
<path d="M2215 3520 c-3 -5 -1 -10 4 -10 6 0 11 5 11 10 0 6 -2 10 -4 10 -3 0
-8 -4 -11 -10z"/>
<path d="M3662 2875 c3 -14 1 -28 -3 -31 -5 -3 -9 1 -9 8 0 10 -2 10 -9 0 -4
-8 -12 -14 -17 -13 -14 0 -94 -101 -88 -111 3 -5 2 -7 -3 -6 -4 2 -10 -1 -12
-7 -3 -5 -21 -25 -40 -43 -20 -19 -30 -31 -24 -27 8 4 11 1 8 -7 -3 -7 -15
-18 -28 -23 -12 -6 -21 -18 -21 -27 1 -10 -2 -16 -6 -13 -4 3 -31 -22 -59 -54
-44 -50 -49 -60 -34 -65 56 -17 213 -44 231 -39 13 3 22 1 22 -6 0 -8 358 -10
1338 -9 1065 2 1226 3 792 9 -670 8 -761 11 -560 19 l145 6 -142 2 c-136 2
-143 3 -143 22 0 13 -7 20 -20 20 -13 0 -20 -7 -20 -20 0 -15 -7 -20 -29 -20
-49 0 -91 12 -91 26 0 10 -13 14 -40 14 -33 0 -40 -3 -40 -20 0 -13 -7 -20
-20 -20 -13 0 -20 7 -20 20 0 13 -7 20 -20 20 -14 0 -20 -7 -20 -21 0 -15 -4
-19 -16 -15 -9 3 -18 6 -20 6 -2 0 -4 16 -4 35 l0 35 -80 0 c-73 0 -80 2 -80
20 0 18 -7 20 -80 20 l-80 0 0 -40 0 -40 -160 0 c-153 0 -160 1 -160 20 0 17
-7 20 -40 20 -39 0 -40 1 -40 35 0 19 -5 35 -11 35 -8 0 -8 4 1 14 6 8 17 14
23 12 7 -1 9 -1 4 1 -4 3 -5 9 -1 14 3 5 -4 9 -14 9 -11 0 -47 18 -81 41 -33
22 -64 38 -69 35 -5 -3 -9 1 -9 9 0 8 4 12 9 9 5 -3 -6 14 -24 38 -27 36 -35
42 -46 31 -21 -20 -24 -15 -7 11 14 21 14 24 0 30 -11 4 -14 13 -9 31 5 19 2
25 -11 25 -13 0 -16 -6 -13 -25z m130 -203 c-7 -2 -12 -10 -12 -18 0 -8 -4
-14 -10 -14 -5 0 -10 9 -10 20 0 11 6 19 13 18 7 -2 11 5 9 17 -2 20 -2 20 9
1 9 -15 9 -21 1 -24z m24 -30 c-11 -10 -15 4 -8 28 l7 25 3 -23 c2 -13 1 -26
-2 -30z m64 3 c14 -8 21 -14 15 -14 -5 0 -21 6 -35 14 -14 8 -20 14 -15 14 6
0 21 -6 35 -14z m-520 -151 c0 -8 -4 -12 -10 -9 -5 3 -10 -1 -10 -10 0 -9 -5
-13 -11 -10 -7 5 -4 14 7 26 21 23 24 24 24 3z m683 -55 c25 -1 20 -3 -18 -10
-27 -5 -59 -5 -70 -2 -19 6 -18 7 5 14 14 4 31 5 38 3 8 -2 28 -5 45 -5z m464
-5 c-3 -3 -12 -4 -19 -1 -8 3 -5 6 6 6 11 1 17 -2 13 -5z m-667 -14 c0 -5 -4
-10 -10 -10 -5 0 -10 5 -10 10 0 6 5 10 10 10 6 0 10 -4 10 -10z m713 3 c-7
-2 -19 -2 -25 0 -7 3 -2 5 12 5 14 0 19 -2 13 -5z m80 0 c-7 -2 -19 -2 -25 0
-7 3 -2 5 12 5 14 0 19 -2 13 -5z m282 -3 c-27 -4 -61 -3 -75 1 -16 5 2 7 50
7 70 -1 72 -1 25 -8z"/>
<path d="M4449 2823 c-13 -16 -12 -17 4 -4 16 13 21 21 13 21 -2 0 -10 -8 -17
-17z"/>
<path d="M4330 2709 c0 -5 -4 -8 -9 -4 -5 3 -13 0 -17 -6 -5 -9 0 -10 14 -7
13 4 22 1 22 -5 0 -8 3 -8 11 0 6 6 8 16 5 22 -9 14 -26 14 -26 0z"/>
<path d="M4270 2680 c-9 -6 -10 -10 -3 -10 6 0 15 5 18 10 8 12 4 12 -15 0z"/>
<path d="M4225 2650 c3 -5 8 -10 11 -10 2 0 4 5 4 10 0 6 -5 10 -11 10 -5 0
-7 -4 -4 -10z"/>
<path d="M4118 2623 c6 -2 18 -2 25 0 6 3 1 5 -13 5 -14 0 -19 -2 -12 -5z"/>
<path d="M3960 2610 c0 -5 7 -7 15 -4 8 4 15 8 15 10 0 2 -7 4 -15 4 -8 0 -15
-4 -15 -10z"/>
<path d="M4000 2612 c0 -4 17 -6 38 -4 58 5 62 10 10 11 -27 1 -48 -3 -48 -7z"/>
</g>
</svg>
